<svg xmlns="http://www.w3.org/2000/svg" viewBox="0 0 512 512"><rect width="512" height="512" rx="110" fill="#111827"/><path d="M256 82c-96 0-174 78-174 174 0 77 50 142 119 165 9 2 12-4 12-9v-31c-48 10-58-23-58-23-8-21-20-27-20-27-16-11 1-11 1-11 18 1 28 18 28 18 16 28 43 20 54 15 2-12 6-20 11-25-38-4-78-19-78-85 0-19 7-34 18-46-2-4-8-23 2-46 0 0 15-5 48 17a165 165 0 0 1 87 0c33-22 48-17 48-17 10 23 4 42 2 46 11 12 18 27 18 46 0 66-40 81-79 85 6 5 11 16 11 33v49c0 5 3 11 12 9 69-23 119-88 119-165 0-96-78-174-174-174Z" fill="#fff"/></svg>
